<svg width="74" height="34" viewBox="0 0 74 34" fill="none" xmlns="http://www.w3.org/2000/svg">
<path d="M4.41602 9.22803L6.87451 0.961914H9.19385L5.70557 11H4.2583L4.41602 9.22803ZM2.53271 0.961914L5.0376 9.26514L5.1582 11H3.71094L0.204102 0.961914H2.53271ZM16.0869 8.98682V4.19971C16.0869 3.84098 16.022 3.53174 15.8921 3.27197C15.7622 3.01221 15.5643 2.8112 15.2983 2.66895C15.0386 2.52669 14.7108 2.45557 14.3149 2.45557C13.95 2.45557 13.6346 2.51742 13.3687 2.64111C13.1027 2.76481 12.8955 2.9318 12.7471 3.14209C12.5986 3.35238 12.5244 3.59049 12.5244 3.85645H10.2979C10.2979 3.46061 10.3937 3.07715 10.5854 2.70605C10.7772 2.33496 11.0555 2.00407 11.4204 1.71338C11.7853 1.42269 12.2214 1.19385 12.7285 1.02686C13.2357 0.859863 13.8047 0.776367 14.4355 0.776367C15.1901 0.776367 15.8581 0.903158 16.4395 1.15674C17.027 1.41032 17.4878 1.79378 17.8218 2.30713C18.1619 2.81429 18.332 3.45133 18.332 4.21826V8.68066C18.332 9.13835 18.363 9.54964 18.4248 9.91455C18.4928 10.2733 18.5887 10.5856 18.7124 10.8516V11H16.4209C16.3158 10.7588 16.2323 10.4526 16.1704 10.0815C16.1147 9.70426 16.0869 9.33936 16.0869 8.98682ZM16.4116 4.89551L16.4302 6.27783H14.8252C14.4108 6.27783 14.0459 6.31803 13.7305 6.39844C13.415 6.47266 13.1522 6.58398 12.9419 6.73242C12.7316 6.88086 12.5739 7.06022 12.4688 7.27051C12.3636 7.48079 12.311 7.71891 12.311 7.98486C12.311 8.25081 12.3729 8.49512 12.4966 8.71777C12.6203 8.93424 12.7996 9.10433 13.0347 9.22803C13.2759 9.35173 13.5666 9.41357 13.9067 9.41357C14.3644 9.41357 14.7633 9.3208 15.1035 9.13525C15.4499 8.94352 15.722 8.71159 15.9199 8.43945C16.1178 8.16113 16.223 7.89827 16.2354 7.65088L16.959 8.64355C16.8848 8.89714 16.758 9.16927 16.5786 9.45996C16.3993 9.75065 16.1642 10.029 15.8735 10.2949C15.589 10.5547 15.2458 10.7681 14.8438 10.9351C14.4479 11.1021 13.9902 11.1855 13.4707 11.1855C12.8151 11.1855 12.2306 11.0557 11.7173 10.7959C11.2039 10.5299 10.8019 10.1743 10.5112 9.729C10.2205 9.27751 10.0752 8.76725 10.0752 8.19824C10.0752 7.66634 10.1742 7.19629 10.3721 6.78809C10.5762 6.3737 10.873 6.02734 11.2627 5.74902C11.6585 5.4707 12.141 5.26042 12.71 5.11816C13.279 4.96973 13.9284 4.89551 14.6582 4.89551H16.4116ZM22.9058 3.00293V11H20.6699V0.961914H22.7759L22.9058 3.00293ZM22.5439 5.60986L21.7832 5.60059C21.7832 4.90788 21.8698 4.26774 22.043 3.68018C22.2161 3.09261 22.4697 2.58236 22.8037 2.14941C23.1377 1.71029 23.5521 1.37321 24.0469 1.13818C24.5479 0.896973 25.1261 0.776367 25.7817 0.776367C26.2394 0.776367 26.6569 0.844401 27.0342 0.980469C27.4176 1.11035 27.7485 1.31755 28.0269 1.60205C28.3114 1.88656 28.5278 2.25146 28.6763 2.69678C28.8309 3.14209 28.9082 3.68018 28.9082 4.31104V11H26.6724V4.50586C26.6724 4.01725 26.5981 3.63379 26.4497 3.35547C26.3075 3.07715 26.1003 2.87923 25.8281 2.76172C25.5622 2.63802 25.2437 2.57617 24.8726 2.57617C24.452 2.57617 24.0933 2.65658 23.7964 2.81738C23.5057 2.97819 23.2676 3.19775 23.082 3.47607C22.8965 3.75439 22.7604 4.07601 22.6738 4.44092C22.5872 4.80583 22.5439 5.19548 22.5439 5.60986ZM28.769 5.01611L27.7207 5.24805C27.7207 4.64193 27.8042 4.06982 27.9712 3.53174C28.1444 2.98747 28.3949 2.51123 28.7227 2.10303C29.0566 1.68864 29.4679 1.36393 29.9565 1.12891C30.4451 0.89388 31.0049 0.776367 31.6357 0.776367C32.1491 0.776367 32.6068 0.847493 33.0088 0.989746C33.417 1.12581 33.7633 1.34229 34.0479 1.63916C34.3324 1.93604 34.5488 2.32259 34.6973 2.79883C34.8457 3.26888 34.9199 3.83789 34.9199 4.50586V11H32.6748V4.49658C32.6748 3.98942 32.6006 3.59668 32.4521 3.31836C32.3099 3.04004 32.1058 2.84831 31.8398 2.74316C31.5739 2.63184 31.2554 2.57617 30.8843 2.57617C30.5379 2.57617 30.2318 2.64111 29.9658 2.771C29.7061 2.89469 29.4865 3.07096 29.3071 3.2998C29.1278 3.52246 28.9917 3.77913 28.8989 4.06982C28.8123 4.36051 28.769 4.67594 28.769 5.01611ZM36.7939 6.09229V5.87891C36.7939 5.15527 36.8991 4.48421 37.1094 3.86572C37.3197 3.24105 37.6227 2.69987 38.0186 2.24219C38.4206 1.77832 38.9092 1.4196 39.4844 1.16602C40.0658 0.90625 40.7214 0.776367 41.4512 0.776367C42.1872 0.776367 42.8428 0.90625 43.418 1.16602C43.9993 1.4196 44.491 1.77832 44.8931 2.24219C45.2951 2.69987 45.6012 3.24105 45.8115 3.86572C46.0218 4.48421 46.127 5.15527 46.127 5.87891V6.09229C46.127 6.81592 46.0218 7.48698 45.8115 8.10547C45.6012 8.72396 45.2951 9.26514 44.8931 9.729C44.491 10.1867 44.0024 10.5454 43.4272 10.8052C42.8521 11.0588 42.1995 11.1855 41.4697 11.1855C40.7337 11.1855 40.075 11.0588 39.4937 10.8052C38.9185 10.5454 38.4299 10.1867 38.0278 9.729C37.6258 9.26514 37.3197 8.72396 37.1094 8.10547C36.8991 7.48698 36.7939 6.81592 36.7939 6.09229ZM39.0298 5.87891V6.09229C39.0298 6.54378 39.0762 6.97054 39.1689 7.37256C39.2617 7.77458 39.4071 8.12712 39.605 8.43018C39.8029 8.73324 40.0565 8.97135 40.3657 9.14453C40.675 9.31771 41.043 9.4043 41.4697 9.4043C41.8841 9.4043 42.2428 9.31771 42.5459 9.14453C42.8551 8.97135 43.1087 8.73324 43.3066 8.43018C43.5046 8.12712 43.6499 7.77458 43.7427 7.37256C43.8416 6.97054 43.8911 6.54378 43.8911 6.09229V5.87891C43.8911 5.43359 43.8416 5.01302 43.7427 4.61719C43.6499 4.21517 43.5015 3.85954 43.2974 3.55029C43.0994 3.24105 42.8459 2.99984 42.5366 2.82666C42.2336 2.6473 41.8717 2.55762 41.4512 2.55762C41.0306 2.55762 40.6657 2.6473 40.3564 2.82666C40.0534 2.99984 39.8029 3.24105 39.605 3.55029C39.4071 3.85954 39.2617 4.21517 39.1689 4.61719C39.0762 5.01302 39.0298 5.43359 39.0298 5.87891ZM53.6323 8.28174C53.6323 8.05908 53.5767 7.85807 53.4653 7.67871C53.354 7.49316 53.1406 7.32617 52.8252 7.17773C52.516 7.0293 52.0583 6.89323 51.4521 6.76953C50.9202 6.65202 50.4316 6.51286 49.9863 6.35205C49.5472 6.18506 49.1699 5.98405 48.8545 5.74902C48.5391 5.514 48.2948 5.23568 48.1216 4.91406C47.9484 4.59245 47.8618 4.22135 47.8618 3.80078C47.8618 3.39258 47.9515 3.00602 48.1309 2.64111C48.3102 2.2762 48.5669 1.95459 48.9009 1.67627C49.2349 1.39795 49.64 1.17839 50.1162 1.01758C50.5986 0.856771 51.1367 0.776367 51.7305 0.776367C52.5716 0.776367 53.2922 0.91862 53.8921 1.20312C54.4982 1.48145 54.9621 1.86182 55.2837 2.34424C55.6053 2.82048 55.7661 3.35856 55.7661 3.9585H53.5303C53.5303 3.69255 53.4622 3.44515 53.3262 3.21631C53.1963 2.98128 52.9984 2.79264 52.7324 2.65039C52.4665 2.50195 52.1325 2.42773 51.7305 2.42773C51.347 2.42773 51.0285 2.48958 50.7749 2.61328C50.5275 2.73079 50.342 2.88542 50.2183 3.07715C50.1007 3.26888 50.042 3.47917 50.042 3.70801C50.042 3.875 50.0729 4.02653 50.1348 4.1626C50.2028 4.29248 50.3141 4.41309 50.4688 4.52441C50.6234 4.62956 50.8337 4.72852 51.0996 4.82129C51.3717 4.91406 51.7119 5.00374 52.1201 5.09033C52.887 5.25114 53.5457 5.45833 54.0962 5.71191C54.6528 5.95931 55.0796 6.28092 55.3765 6.67676C55.6733 7.06641 55.8218 7.5612 55.8218 8.16113C55.8218 8.60645 55.7259 9.01465 55.5342 9.38574C55.3486 9.75065 55.0765 10.0692 54.7178 10.3413C54.359 10.6073 53.9292 10.8145 53.4282 10.9629C52.9334 11.1113 52.3768 11.1855 51.7583 11.1855C50.8491 11.1855 50.0791 11.0247 49.4482 10.7031C48.8174 10.3753 48.3381 9.95785 48.0103 9.45068C47.6886 8.93734 47.5278 8.40544 47.5278 7.85498H49.6895C49.7142 8.26937 49.8286 8.60026 50.0327 8.84766C50.243 9.08887 50.5028 9.26514 50.812 9.37646C51.1274 9.48161 51.4521 9.53418 51.7861 9.53418C52.1882 9.53418 52.5252 9.48161 52.7974 9.37646C53.0695 9.26514 53.2767 9.1167 53.4189 8.93115C53.5612 8.73942 53.6323 8.52295 53.6323 8.28174ZM3.36768 22.105V30H1.13184V19.9619H3.23779L3.36768 22.105ZM2.96875 24.6099L2.24512 24.6006C2.2513 23.8893 2.35026 23.2368 2.54199 22.6431C2.73991 22.0493 3.01204 21.5391 3.3584 21.1123C3.71094 20.6855 4.13151 20.3577 4.62012 20.1289C5.10872 19.8939 5.65299 19.7764 6.25293 19.7764C6.73535 19.7764 7.17139 19.8444 7.56104 19.9805C7.95687 20.1104 8.29395 20.3237 8.57227 20.6206C8.85677 20.9175 9.07324 21.304 9.22168 21.7803C9.37012 22.2503 9.44434 22.8286 9.44434 23.5151V30H7.19922V23.5059C7.19922 23.0234 7.12809 22.6431 6.98584 22.3647C6.84977 22.0802 6.64876 21.8792 6.38281 21.7617C6.12305 21.638 5.79834 21.5762 5.40869 21.5762C5.02523 21.5762 4.68197 21.6566 4.37891 21.8174C4.07585 21.9782 3.81917 22.1978 3.60889 22.4761C3.40479 22.7544 3.24707 23.076 3.13574 23.4409C3.02441 23.8058 2.96875 24.1955 2.96875 24.6099ZM16.1519 30.1855C15.4097 30.1855 14.7386 30.0649 14.1387 29.8237C13.5449 29.5763 13.0378 29.2331 12.6172 28.7939C12.2028 28.3548 11.8843 27.8384 11.6616 27.2446C11.439 26.6509 11.3276 26.0107 11.3276 25.3242V24.9531C11.3276 24.1676 11.4421 23.4564 11.6709 22.8193C11.8997 22.1823 12.2183 21.638 12.6265 21.1865C13.0347 20.7288 13.5171 20.3794 14.0737 20.1382C14.6304 19.897 15.2334 19.7764 15.8828 19.7764C16.6003 19.7764 17.228 19.897 17.7661 20.1382C18.3042 20.3794 18.7495 20.7196 19.1021 21.1587C19.4608 21.5916 19.7267 22.1081 19.8999 22.708C20.0793 23.3079 20.1689 23.9697 20.1689 24.6934V25.6489H12.4131V24.0439H17.9609V23.8677C17.9486 23.4657 17.8682 23.0884 17.7197 22.7358C17.5775 22.3833 17.3579 22.0988 17.061 21.8823C16.7642 21.6659 16.3683 21.5576 15.8735 21.5576C15.5024 21.5576 15.1715 21.638 14.8809 21.7988C14.5964 21.9535 14.3582 22.1792 14.1665 22.4761C13.9748 22.7729 13.8263 23.1317 13.7212 23.5522C13.6222 23.9666 13.5728 24.4336 13.5728 24.9531V25.3242C13.5728 25.7633 13.6315 26.1715 13.749 26.5488C13.8727 26.9199 14.0521 27.2446 14.2871 27.5229C14.5221 27.8013 14.8066 28.0208 15.1406 28.1816C15.4746 28.3363 15.855 28.4136 16.2817 28.4136C16.8198 28.4136 17.2992 28.3053 17.7197 28.0889C18.1403 27.8724 18.5052 27.5662 18.8145 27.1704L19.9927 28.3115C19.7762 28.627 19.4948 28.93 19.1484 29.2207C18.8021 29.5052 18.3784 29.7371 17.8774 29.9165C17.3826 30.0959 16.8075 30.1855 16.1519 30.1855ZM28.3423 19.9619H30.374V29.7217C30.374 30.6247 30.1823 31.3916 29.7988 32.0225C29.4154 32.6533 28.8804 33.1326 28.1938 33.4604C27.5073 33.7944 26.7126 33.9614 25.8096 33.9614C25.4261 33.9614 24.9993 33.9058 24.5293 33.7944C24.0654 33.6831 23.6139 33.5037 23.1748 33.2563C22.7419 33.0151 22.38 32.6966 22.0894 32.3008L23.1377 30.9834C23.4964 31.4102 23.8923 31.7225 24.3252 31.9204C24.7581 32.1183 25.2127 32.2173 25.689 32.2173C26.2023 32.2173 26.6383 32.1214 26.9971 31.9297C27.362 31.7441 27.6434 31.4689 27.8413 31.104C28.0392 30.7391 28.1382 30.2938 28.1382 29.7681V22.2349L28.3423 19.9619ZM21.5234 25.0923V24.8975C21.5234 24.1367 21.6162 23.444 21.8018 22.8193C21.9873 22.1885 22.2533 21.6473 22.5996 21.1958C22.946 20.7381 23.3665 20.3887 23.8613 20.1475C24.3561 19.9001 24.9159 19.7764 25.5405 19.7764C26.1899 19.7764 26.7435 19.8939 27.2012 20.1289C27.665 20.3639 28.0516 20.701 28.3608 21.1401C28.6701 21.5731 28.9113 22.0926 29.0845 22.6987C29.2638 23.2987 29.3968 23.9666 29.4834 24.7026V25.3242C29.403 26.0417 29.2669 26.6973 29.0752 27.291C28.8835 27.8848 28.6299 28.3981 28.3145 28.8311C27.999 29.264 27.6094 29.598 27.1455 29.833C26.6878 30.068 26.1466 30.1855 25.522 30.1855C24.9097 30.1855 24.3561 30.0588 23.8613 29.8052C23.3727 29.5516 22.9521 29.196 22.5996 28.7383C22.2533 28.2806 21.9873 27.7425 21.8018 27.124C21.6162 26.4993 21.5234 25.8221 21.5234 25.0923ZM23.7593 24.8975V25.0923C23.7593 25.55 23.8026 25.9767 23.8892 26.3726C23.9819 26.7684 24.1211 27.1178 24.3066 27.4209C24.4984 27.7178 24.7396 27.9528 25.0303 28.126C25.3271 28.293 25.6766 28.3765 26.0786 28.3765C26.6043 28.3765 27.0342 28.2651 27.3682 28.0425C27.7083 27.8198 27.9681 27.5199 28.1475 27.1426C28.333 26.7591 28.4629 26.3324 28.5371 25.8623V24.1831C28.5 23.8182 28.4227 23.478 28.3052 23.1626C28.1938 22.8472 28.0423 22.5719 27.8506 22.3369C27.6589 22.0957 27.4176 21.9102 27.127 21.7803C26.8363 21.6442 26.493 21.5762 26.0972 21.5762C25.6951 21.5762 25.3457 21.6628 25.0488 21.8359C24.752 22.0091 24.5076 22.2472 24.3159 22.5503C24.1304 22.8534 23.9912 23.2059 23.8984 23.6079C23.8057 24.0099 23.7593 24.4398 23.7593 24.8975ZM32.2666 25.0923V24.8789C32.2666 24.1553 32.3717 23.4842 32.582 22.8657C32.7923 22.241 33.0954 21.6999 33.4912 21.2422C33.8932 20.7783 34.3818 20.4196 34.957 20.166C35.5384 19.9062 36.194 19.7764 36.9238 19.7764C37.6598 19.7764 38.3154 19.9062 38.8906 20.166C39.472 20.4196 39.9637 20.7783 40.3657 21.2422C40.7677 21.6999 41.0739 22.241 41.2842 22.8657C41.4945 23.4842 41.5996 24.1553 41.5996 24.8789V25.0923C41.5996 25.8159 41.4945 26.487 41.2842 27.1055C41.0739 27.724 40.7677 28.2651 40.3657 28.729C39.9637 29.1867 39.4751 29.5454 38.8999 29.8052C38.3247 30.0588 37.6722 30.1855 36.9424 30.1855C36.2064 30.1855 35.5477 30.0588 34.9663 29.8052C34.3911 29.5454 33.9025 29.1867 33.5005 28.729C33.0985 28.2651 32.7923 27.724 32.582 27.1055C32.3717 26.487 32.2666 25.8159 32.2666 25.0923ZM34.5024 24.8789V25.0923C34.5024 25.5438 34.5488 25.9705 34.6416 26.3726C34.7344 26.7746 34.8797 27.1271 35.0776 27.4302C35.2756 27.7332 35.5291 27.9714 35.8384 28.1445C36.1476 28.3177 36.5156 28.4043 36.9424 28.4043C37.3568 28.4043 37.7155 28.3177 38.0186 28.1445C38.3278 27.9714 38.5814 27.7332 38.7793 27.4302C38.9772 27.1271 39.1226 26.7746 39.2153 26.3726C39.3143 25.9705 39.3638 25.5438 39.3638 25.0923V24.8789C39.3638 24.4336 39.3143 24.013 39.2153 23.6172C39.1226 23.2152 38.9741 22.8595 38.77 22.5503C38.5721 22.241 38.3185 21.9998 38.0093 21.8267C37.7062 21.6473 37.3444 21.5576 36.9238 21.5576C36.5033 21.5576 36.1383 21.6473 35.8291 21.8267C35.526 21.9998 35.2756 22.241 35.0776 22.5503C34.8797 22.8595 34.7344 23.2152 34.6416 23.6172C34.5488 24.013 34.5024 24.4336 34.5024 24.8789ZM47.5742 28.4043C47.9391 28.4043 48.2669 28.3332 48.5576 28.1909C48.8545 28.0425 49.0926 27.8384 49.272 27.5786C49.4575 27.3188 49.5596 27.0189 49.5781 26.6787H51.6841C51.6717 27.3281 51.48 27.9188 51.1089 28.4507C50.7378 28.9826 50.2461 29.4062 49.6338 29.7217C49.0215 30.0309 48.3442 30.1855 47.6021 30.1855C46.8351 30.1855 46.1672 30.0557 45.5981 29.7959C45.0291 29.5299 44.556 29.165 44.1787 28.7012C43.8014 28.2373 43.5169 27.7023 43.3252 27.0962C43.1396 26.4901 43.0469 25.8407 43.0469 25.1479V24.8232C43.0469 24.1305 43.1396 23.4811 43.3252 22.875C43.5169 22.2627 43.8014 21.7246 44.1787 21.2607C44.556 20.7969 45.0291 20.4351 45.5981 20.1753C46.1672 19.9093 46.832 19.7764 47.5928 19.7764C48.3968 19.7764 49.1019 19.9372 49.708 20.2588C50.3141 20.5742 50.7904 21.0164 51.1367 21.5854C51.4893 22.1483 51.6717 22.8039 51.6841 23.5522H49.5781C49.5596 23.1812 49.4668 22.8472 49.2998 22.5503C49.139 22.2472 48.9102 22.006 48.6133 21.8267C48.3226 21.6473 47.9731 21.5576 47.5649 21.5576C47.1134 21.5576 46.7393 21.6504 46.4424 21.8359C46.1455 22.0153 45.9136 22.2627 45.7466 22.5781C45.5796 22.8874 45.459 23.2368 45.3848 23.6265C45.3167 24.0099 45.2827 24.4089 45.2827 24.8232V25.1479C45.2827 25.5623 45.3167 25.9644 45.3848 26.354C45.4528 26.7437 45.5703 27.0931 45.7373 27.4023C45.9105 27.7054 46.1455 27.9497 46.4424 28.1353C46.7393 28.3146 47.1165 28.4043 47.5742 28.4043ZM55.7939 19.9619V30H53.5488V19.9619H55.7939ZM53.4004 17.3271C53.4004 16.987 53.5117 16.7056 53.7344 16.4829C53.9632 16.2541 54.2786 16.1396 54.6807 16.1396C55.0765 16.1396 55.3888 16.2541 55.6177 16.4829C55.8465 16.7056 55.9609 16.987 55.9609 17.3271C55.9609 17.6611 55.8465 17.9395 55.6177 18.1621C55.3888 18.3848 55.0765 18.4961 54.6807 18.4961C54.2786 18.4961 53.9632 18.3848 53.7344 18.1621C53.5117 17.9395 53.4004 17.6611 53.4004 17.3271ZM63.9023 27.9868V23.1997C63.9023 22.841 63.8374 22.5317 63.7075 22.272C63.5776 22.0122 63.3797 21.8112 63.1138 21.6689C62.854 21.5267 62.5262 21.4556 62.1304 21.4556C61.7655 21.4556 61.45 21.5174 61.1841 21.6411C60.9181 21.7648 60.7109 21.9318 60.5625 22.1421C60.4141 22.3524 60.3398 22.5905 60.3398 22.8564H58.1133C58.1133 22.4606 58.2091 22.0771 58.4009 21.7061C58.5926 21.335 58.8709 21.0041 59.2358 20.7134C59.6007 20.4227 60.0368 20.1938 60.5439 20.0269C61.0511 19.8599 61.6201 19.7764 62.251 19.7764C63.0055 19.7764 63.6735 19.9032 64.2549 20.1567C64.8424 20.4103 65.3032 20.7938 65.6372 21.3071C65.9774 21.8143 66.1475 22.4513 66.1475 23.2183V27.6807C66.1475 28.1383 66.1784 28.5496 66.2402 28.9146C66.3083 29.2733 66.4041 29.5856 66.5278 29.8516V30H64.2363C64.1312 29.7588 64.0477 29.4526 63.9858 29.0815C63.9302 28.7043 63.9023 28.3394 63.9023 27.9868ZM64.2271 23.8955L64.2456 25.2778H62.6406C62.2262 25.2778 61.8613 25.318 61.5459 25.3984C61.2305 25.4727 60.9676 25.584 60.7573 25.7324C60.547 25.8809 60.3893 26.0602 60.2842 26.2705C60.179 26.4808 60.1265 26.7189 60.1265 26.9849C60.1265 27.2508 60.1883 27.4951 60.312 27.7178C60.4357 27.9342 60.6151 28.1043 60.8501 28.228C61.0913 28.3517 61.382 28.4136 61.7222 28.4136C62.1799 28.4136 62.5788 28.3208 62.9189 28.1353C63.2653 27.9435 63.5374 27.7116 63.7354 27.4395C63.9333 27.1611 64.0384 26.8983 64.0508 26.6509L64.7744 27.6436C64.7002 27.8971 64.5734 28.1693 64.394 28.46C64.2147 28.7507 63.9797 29.029 63.689 29.2949C63.4045 29.5547 63.0612 29.7681 62.6592 29.9351C62.2633 30.1021 61.8057 30.1855 61.2861 30.1855C60.6305 30.1855 60.0461 30.0557 59.5327 29.7959C59.0194 29.5299 58.6174 29.1743 58.3267 28.729C58.036 28.2775 57.8906 27.7673 57.8906 27.1982C57.8906 26.6663 57.9896 26.1963 58.1875 25.7881C58.3916 25.3737 58.6885 25.0273 59.0781 24.749C59.474 24.4707 59.9564 24.2604 60.5254 24.1182C61.0944 23.9697 61.7438 23.8955 62.4736 23.8955H64.2271ZM70.7305 21.873V30H68.4946V19.9619H70.6284L70.7305 21.873ZM73.8013 19.897L73.7827 21.9751C73.6466 21.9504 73.4982 21.9318 73.3374 21.9194C73.1828 21.9071 73.0282 21.9009 72.8735 21.9009C72.4901 21.9009 72.153 21.9565 71.8623 22.0679C71.5716 22.173 71.3273 22.3276 71.1294 22.5317C70.9377 22.7297 70.7892 22.9709 70.6841 23.2554C70.5789 23.5399 70.5171 23.8584 70.4985 24.2109L69.9883 24.248C69.9883 23.6172 70.0501 23.0327 70.1738 22.4946C70.2975 21.9565 70.4831 21.4834 70.7305 21.0752C70.984 20.667 71.2995 20.3485 71.6768 20.1196C72.0602 19.8908 72.5024 19.7764 73.0034 19.7764C73.1395 19.7764 73.2848 19.7887 73.4395 19.8135C73.6003 19.8382 73.7209 19.866 73.8013 19.897Z" fill="#D4AA00"/>
</svg>
